<?xml version="1.0" standalone="no"?>
<!DOCTYPE svg PUBLIC "-//W3C//DTD SVG 20010904//EN"
 "http://www.w3.org/TR/2001/REC-SVG-20010904/DTD/svg10.dtd">
<svg version="1.0" xmlns="http://www.w3.org/2000/svg"
 width="512.000000pt" height="512.000000pt" viewBox="0 0 512.000000 512.000000"
 preserveAspectRatio="xMidYMid meet">
<metadata>
Created by potrace 1.14, written by Peter Selinger 2001-2017
</metadata>
<g transform="translate(0.000000,512.000000) scale(0.100000,-0.100000)"
fill="#000000" stroke="none">
<path d="M2315 4637 c-214 -78 -386 -160 -758 -364 -268 -146 -291 -162 -467
-322 -80 -73 -221 -194 -314 -269 -376 -303 -461 -395 -471 -505 -2 -23 -20
-84 -40 -135 -93 -240 -208 -668 -245 -911 -21 -139 -21 -145 -4 -190 77 -204
632 -525 1658 -960 396 -168 929 -377 1303 -510 88 -31 115 -37 126 -28 12 9
17 47 22 153 l7 142 -76 51 c-155 105 -281 214 -592 511 -220 211 -486 425
-869 697 -390 278 -653 515 -921 833 -115 136 -167 207 -209 284 -49 87 -46
135 10 222 56 84 269 293 413 404 469 361 1109 698 1497 790 181 42 261 35
420 -40 440 -206 1286 -1039 2164 -2133 105 -131 138 -154 134 -93 -1 20 -25
51 -81 109 -44 45 -138 148 -208 228 -582 658 -761 855 -1024 1123 -582 592
-1031 921 -1300 950 -48 5 -70 0 -175 -37z"/>
<path d="M2453 3945 c-238 -61 -403 -192 -420 -333 -22 -188 122 -346 392
-428 81 -25 106 -28 245 -28 174 -1 231 11 312 64 127 84 167 347 79 524 -36
73 -130 168 -203 204 -40 20 -60 22 -179 22 -107 -1 -152 -6 -226 -25z"/>
<path d="M1375 3340 c-27 -10 -93 -84 -106 -118 -19 -50 11 -155 58 -204 43
-45 105 -63 218 -63 92 0 104 2 153 29 63 35 92 78 92 135 0 73 -43 128 -136
174 -80 40 -232 66 -279 47z"/>
<path d="M3644 3122 c-112 -40 -119 -45 -137 -94 -54 -150 -7 -272 134 -348
86 -46 183 -54 234 -19 19 13 49 44 66 68 29 40 32 50 31 114 -2 81 -20 151
-60 222 -31 57 -54 71 -132 79 -45 5 -69 1 -136 -22z"/>
<path d="M1755 2776 c-22 -7 -80 -33 -129 -58 l-90 -45 70 -52 c135 -100 213
-123 268 -80 81 64 71 197 -19 235 -41 17 -48 17 -100 0z"/>
<path d="M2460 2747 c-41 -13 -93 -33 -116 -45 -87 -45 -134 -135 -134 -256 1
-147 91 -225 281 -242 236 -22 462 129 462 308 0 152 -117 241 -332 253 -71 4
-99 1 -161 -18z"/>
<path d="M3167 2556 c-42 -28 -76 -90 -62 -112 6 -9 37 -30 70 -48 59 -31 62
-31 207 -31 94 0 151 4 158 11 8 8 6 23 -6 54 -30 75 -117 120 -268 138 -61 8
-71 6 -99 -12z"/>
<path d="M4380 2487 c-31 -11 -35 -16 -38 -53 -3 -37 1 -44 38 -78 56 -51 85
-63 106 -45 21 17 49 81 58 130 6 36 6 37 -38 48 -55 14 -81 13 -126 -2z"/>
<path d="M3030 1923 c-8 -3 -60 -30 -115 -61 -228 -125 -250 -150 -250 -282 0
-99 12 -128 83 -197 135 -130 425 -198 614 -144 176 50 265 146 276 294 4 61
2 73 -28 134 -40 80 -140 183 -221 228 -52 29 -59 30 -199 32 -80 1 -152 0
-160 -4z"/>
</g>
</svg>
