<?xml version="1.0" standalone="no"?>
<!DOCTYPE svg PUBLIC "-//W3C//DTD SVG 20010904//EN"
 "http://www.w3.org/TR/2001/REC-SVG-20010904/DTD/svg10.dtd">
<svg version="1.0" xmlns="http://www.w3.org/2000/svg"
 width="720.000000pt" height="720.000000pt" viewBox="0 0 720.000000 720.000000"
 preserveAspectRatio="xMidYMid meet">
<metadata>
Created by potrace 1.14, written by Peter Selinger 2001-2017
</metadata>
<g transform="translate(0.000000,720.000000) scale(0.100000,-0.100000)"
fill="#000000" stroke="none">
<path d="M3350 6564 c-36 -13 -74 -27 -85 -29 -11 -3 -67 -23 -125 -46 -58
-23 -124 -48 -147 -56 -24 -9 -43 -19 -43 -24 0 -5 -7 -9 -15 -9 -8 0 -23 -4
-33 -9 -9 -6 -102 -52 -207 -103 -104 -51 -192 -95 -195 -98 -3 -3 -41 -23
-85 -45 -44 -22 -82 -42 -85 -45 -3 -3 -32 -18 -65 -35 -33 -16 -62 -32 -65
-35 -3 -3 -14 -10 -25 -16 -33 -18 -285 -158 -303 -169 -42 -25 -78 -50 -84
-60 -5 -6 -8 -6 -8 0 0 7 -3 7 -8 0 -4 -5 -34 -32 -67 -59 -33 -28 -82 -72
-109 -98 -26 -26 -50 -48 -53 -48 -2 0 -21 -17 -41 -38 -31 -31 -145 -133
-215 -192 -44 -36 -57 -47 -97 -80 -24 -19 -62 -51 -85 -70 -24 -19 -57 -46
-75 -60 -17 -14 -40 -32 -49 -40 -10 -8 -33 -26 -51 -40 -18 -14 -41 -32 -51
-40 -9 -8 -32 -26 -49 -40 -119 -93 -304 -276 -346 -341 -16 -24 -37 -62 -47
-83 -18 -40 -26 -101 -14 -112 3 -3 -9 -41 -28 -84 -18 -44 -30 -81 -27 -84 3
-4 0 -6 -6 -6 -7 0 -11 -3 -10 -7 0 -5 -2 -15 -5 -23 -25 -61 -172 -537 -181
-584 -2 -12 -11 -46 -21 -76 -9 -30 -19 -66 -21 -80 -3 -14 -16 -70 -29 -125
-24 -102 -53 -236 -61 -290 -3 -16 -7 -41 -10 -55 -14 -76 -19 -124 -19 -205
0 -82 3 -95 29 -140 33 -55 38 -62 82 -108 46 -47 103 -98 154 -137 25 -19 47
-37 50 -40 3 -3 12 -9 22 -15 9 -5 49 -32 89 -60 80 -54 85 -58 149 -95 23
-14 50 -29 59 -35 37 -23 202 -116 276 -156 145 -77 658 -329 671 -329 2 0 47
-21 101 -46 108 -51 129 -60 288 -129 61 -27 133 -58 160 -71 28 -12 154 -65
280 -118 127 -53 244 -103 260 -111 17 -7 48 -20 70 -28 59 -21 243 -96 294
-119 25 -11 52 -21 60 -23 15 -4 122 -45 166 -65 28 -12 445 -171 475 -181 14
-4 68 -24 120 -44 52 -20 100 -38 105 -39 6 -2 21 -7 35 -13 14 -5 54 -20 90
-32 36 -13 74 -27 85 -31 11 -5 53 -20 94 -35 l73 -25 112 58 c121 64 158 84
166 92 3 3 21 14 40 24 19 11 88 53 153 95 64 42 125 81 134 86 9 6 27 19 39
29 20 17 97 71 174 124 14 9 30 21 36 27 6 5 23 19 38 30 25 17 172 133 291
228 42 34 103 86 121 102 6 6 37 33 69 60 33 28 71 61 86 75 15 14 55 50 90
80 34 30 81 73 105 95 23 22 78 72 121 112 43 39 99 91 124 115 72 67 280 262
319 298 19 18 67 62 106 99 120 111 256 236 264 241 4 3 39 33 76 67 38 34 82
73 97 86 28 24 44 73 77 230 28 137 24 151 -64 241 -34 34 -97 101 -141 150
-44 48 -91 101 -105 116 -45 49 -129 144 -151 170 -11 14 -39 46 -62 71 -23
25 -78 87 -121 137 -44 51 -84 92 -89 92 -4 0 -6 4 -3 9 4 5 2 11 -2 13 -8 3
-27 23 -177 193 -38 43 -87 96 -107 117 -21 21 -35 38 -32 38 2 0 -10 15 -28
33 -18 19 -53 56 -77 83 -24 27 -80 89 -125 138 -44 49 -92 101 -104 115 -195
215 -755 782 -926 936 -49 44 -99 90 -112 103 -13 12 -25 22 -27 22 -3 0 -25
19 -49 43 -59 55 -95 86 -138 118 -19 14 -47 37 -62 51 -14 14 -41 36 -60 49
-18 13 -44 34 -58 46 -14 13 -28 23 -31 23 -3 0 -22 13 -40 30 -19 16 -39 30
-46 30 -6 0 -13 4 -15 8 -4 12 -134 102 -147 102 -5 0 -11 4 -13 8 -4 11 -81
57 -90 54 -5 -1 -8 2 -8 7 0 4 -55 35 -122 68 -237 117 -376 144 -498 97z
m1108 -5540 c9 -4 -13 -33 -29 -37 -16 -4 -19 0 -19 29 0 32 1 34 23 22 12 -7
23 -13 25 -14z"/>
</g>
</svg>
